Normalized EMG Linear Envelopes
nRows=59
nColumns=17

endheader
time	        VM	        VL	        RF	       GRA	        TA	   ADDLONG	   SEMIMEM	      BFLH	        GM	        GL	       TFL	   GLUTMAX	   GLUTMED	      PIRI	    OBTINT	        QF	
3.435	  0.070740	  0.196047	  0.977571	  0.305589	  0.614410	  0.218304	  0.036678	  0.071251	  0.054620	  0.081690	  0.454940	  0.079781	  0.094512	  0.000000	  0.000000	  0.000000	
3.4355	  0.070950	  0.196033	  0.979373	  0.303754	  0.609494	  0.216160	  0.036202	  0.071159	  0.054427	  0.080877	  0.454819	  0.080732	  0.095456	  0.000000	  0.000000	  0.000000	
3.436	  0.071152	  0.196016	  0.981118	  0.301936	  0.604557	  0.214031	  0.035735	  0.071076	  0.054250	  0.080082	  0.454658	  0.081686	  0.096410	  0.000000	  0.000000	  0.000000	
3.4365	  0.071348	  0.195993	  0.982802	  0.300134	  0.599599	  0.211916	  0.035280	  0.071002	  0.054089	  0.079306	  0.454458	  0.082643	  0.097374	  0.000000	  0.000000	  0.000000	
3.437	  0.071537	  0.195965	  0.984424	  0.298346	  0.594625	  0.209816	  0.034834	  0.070937	  0.053943	  0.078549	  0.454217	  0.083602	  0.098347	  0.000000	  0.000000	  0.000000	
3.4375	  0.071719	  0.195931	  0.985980	  0.296573	  0.589637	  0.207732	  0.034398	  0.070881	  0.053814	  0.077811	  0.453932	  0.084564	  0.099329	  0.000000	  0.000000	  0.000000	
3.438	  0.071894	  0.195890	  0.987467	  0.294815	  0.584638	  0.205663	  0.033971	  0.070833	  0.053701	  0.077091	  0.453604	  0.085528	  0.100321	  0.000000	  0.000000	  0.000000	
3.4385	  0.072062	  0.195841	  0.988884	  0.293070	  0.579630	  0.203609	  0.033555	  0.070794	  0.053604	  0.076392	  0.453229	  0.086493	  0.101322	  0.000000	  0.000000	  0.000000	
3.439	  0.072223	  0.195783	  0.990226	  0.291340	  0.574616	  0.201571	  0.033148	  0.070763	  0.053524	  0.075712	  0.452807	  0.087459	  0.102331	  0.000000	  0.000000	  0.000000	
3.4395	  0.072377	  0.195716	  0.991493	  0.289624	  0.569598	  0.199548	  0.032751	  0.070740	  0.053461	  0.075051	  0.452335	  0.088426	  0.103349	  0.000000	  0.000000	  0.000000	
3.44	  0.072523	  0.195638	  0.992680	  0.287922	  0.564579	  0.197541	  0.032364	  0.070725	  0.053414	  0.074411	  0.451813	  0.089393	  0.104375	  0.000000	  0.000000	  0.000000	
3.4405	  0.072661	  0.195550	  0.993787	  0.286234	  0.559562	  0.195550	  0.031985	  0.070718	  0.053385	  0.073790	  0.451238	  0.090360	  0.105409	  0.000000	  0.000000	  0.000000	
3.441	  0.072792	  0.195449	  0.994811	  0.284559	  0.554550	  0.193575	  0.031617	  0.070718	  0.053372	  0.073190	  0.450608	  0.091326	  0.106451	  0.000000	  0.000000	  0.000000	
3.4415	  0.072914	  0.195336	  0.995750	  0.282897	  0.549544	  0.191616	  0.031258	  0.070727	  0.053377	  0.072610	  0.449922	  0.092291	  0.107501	  0.000000	  0.000000	  0.000000	
3.442	  0.073028	  0.195209	  0.996601	  0.281249	  0.544547	  0.189673	  0.030908	  0.070743	  0.053399	  0.072050	  0.449179	  0.093255	  0.108558	  0.000000	  0.000000	  0.000000	
3.4425	  0.073134	  0.195069	  0.997363	  0.279612	  0.539561	  0.187746	  0.030567	  0.070766	  0.053438	  0.071510	  0.448375	  0.094216	  0.109623	  0.000000	  0.000000	  0.000000	
3.443	  0.073232	  0.194913	  0.998032	  0.277988	  0.534588	  0.185834	  0.030235	  0.070797	  0.053495	  0.070991	  0.447509	  0.095174	  0.110695	  0.000000	  0.000000	  0.000000	
3.4435	  0.073321	  0.194743	  0.998607	  0.276376	  0.529631	  0.183940	  0.029913	  0.070835	  0.053570	  0.070492	  0.446581	  0.096130	  0.111773	  0.000000	  0.000000	  0.000000	
3.444	  0.073401	  0.194557	  0.999086	  0.274776	  0.524691	  0.182061	  0.029599	  0.070880	  0.053662	  0.070013	  0.445587	  0.097082	  0.112858	  0.000000	  0.000000	  0.000000	
3.4445	  0.073472	  0.194354	  0.999466	  0.273187	  0.519769	  0.180199	  0.029294	  0.070932	  0.053773	  0.069555	  0.444529	  0.098030	  0.113949	  0.000000	  0.000000	  0.000000	
3.445	  0.073534	  0.194134	  0.999746	  0.271609	  0.514868	  0.178354	  0.028999	  0.070990	  0.053901	  0.069117	  0.443404	  0.098973	  0.115046	  0.000000	  0.000000	  0.000000	
3.4455	  0.073587	  0.193897	  0.999924	  0.270042	  0.509990	  0.176525	  0.028711	  0.071055	  0.054047	  0.068700	  0.442213	  0.099911	  0.116148	  0.000000	  0.000000	  0.000000	
3.446	  0.073630	  0.193641	  1.000000	  0.268486	  0.505135	  0.174713	  0.028433	  0.071126	  0.054211	  0.068302	  0.440957	  0.100844	  0.117256	  0.000000	  0.000000	  0.000000	
3.4465	  0.073664	  0.193365	  0.999973	  0.266939	  0.500307	  0.172917	  0.028163	  0.071202	  0.054393	  0.067925	  0.439636	  0.101772	  0.118369	  0.000000	  0.000000	  0.000000	
3.447	  0.073688	  0.193070	  0.999841	  0.265402	  0.495505	  0.171139	  0.027901	  0.071285	  0.054593	  0.067567	  0.438252	  0.102693	  0.119487	  0.000000	  0.000000	  0.000000	
3.4475	  0.073702	  0.192755	  0.999605	  0.263875	  0.490732	  0.169379	  0.027647	  0.071373	  0.054811	  0.067230	  0.436804	  0.103608	  0.120609	  0.000000	  0.000000	  0.000000	
3.448	  0.073705	  0.192420	  0.999263	  0.262355	  0.485988	  0.167636	  0.027401	  0.071465	  0.055048	  0.066912	  0.435295	  0.104516	  0.121735	  0.000000	  0.000000	  0.000000	
3.4485	  0.073699	  0.192063	  0.998814	  0.260843	  0.481275	  0.165912	  0.027163	  0.071563	  0.055303	  0.066613	  0.433724	  0.105417	  0.122864	  0.000000	  0.000000	  0.000000	
3.449	  0.073682	  0.191687	  0.998257	  0.259339	  0.476595	  0.164206	  0.026933	  0.071666	  0.055577	  0.066334	  0.432093	  0.106311	  0.123997	  0.000000	  0.000000	  0.000000	
3.4495	  0.073655	  0.191289	  0.997593	  0.257841	  0.471947	  0.162519	  0.026711	  0.071772	  0.055869	  0.066075	  0.430404	  0.107197	  0.125133	  0.000000	  0.000000	  0.000000	
3.45	  0.073617	  0.190870	  0.996819	  0.256350	  0.467333	  0.160850	  0.026496	  0.071883	  0.056179	  0.065834	  0.428657	  0.108075	  0.126272	  0.000000	  0.000000	  0.000000	
3.4505	  0.073569	  0.190430	  0.995938	  0.254864	  0.462754	  0.159201	  0.026288	  0.071997	  0.056508	  0.065613	  0.426855	  0.108943	  0.127412	  0.000000	  0.000000	  0.000000	
3.451	  0.073510	  0.189969	  0.994948	  0.253383	  0.458209	  0.157571	  0.026087	  0.072115	  0.056855	  0.065410	  0.424997	  0.109803	  0.128555	  0.000000	  0.000000	  0.000000	
3.4515	  0.073440	  0.189487	  0.993853	  0.251908	  0.453700	  0.155961	  0.025894	  0.072236	  0.057220	  0.065226	  0.423085	  0.110653	  0.129699	  0.000000	  0.000000	  0.000000	
3.452	  0.073360	  0.188984	  0.992651	  0.250437	  0.449227	  0.154370	  0.025707	  0.072359	  0.057604	  0.065060	  0.421120	  0.111493	  0.130843	  0.000000	  0.000000	  0.000000	
3.4525	  0.073269	  0.188459	  0.991344	  0.248971	  0.444790	  0.152799	  0.025527	  0.072485	  0.058006	  0.064912	  0.419103	  0.112322	  0.131989	  0.000000	  0.000000	  0.000000	
3.453	  0.073166	  0.187913	  0.989932	  0.247510	  0.440389	  0.151248	  0.025353	  0.072614	  0.058426	  0.064783	  0.417035	  0.113140	  0.133135	  0.000000	  0.000000	  0.000000	
3.4535	  0.073053	  0.187346	  0.988415	  0.246053	  0.436025	  0.149718	  0.025186	  0.072744	  0.058865	  0.064671	  0.414917	  0.113947	  0.134280	  0.000000	  0.000000	  0.000000	
3.454	  0.072929	  0.186759	  0.986794	  0.244600	  0.431697	  0.148208	  0.025025	  0.072875	  0.059321	  0.064578	  0.412751	  0.114741	  0.135426	  0.000000	  0.000000	  0.000000	
3.4545	  0.072793	  0.186151	  0.985067	  0.243152	  0.427406	  0.146718	  0.024870	  0.073008	  0.059796	  0.064501	  0.410537	  0.115522	  0.136570	  0.000000	  0.000000	  0.000000	
3.455	  0.072647	  0.185524	  0.983236	  0.241708	  0.423152	  0.145249	  0.024721	  0.073142	  0.060288	  0.064443	  0.408277	  0.116290	  0.137713	  0.000000	  0.000000	  0.000000	
3.4555	  0.072490	  0.184877	  0.981299	  0.240269	  0.418934	  0.143800	  0.024577	  0.073276	  0.060798	  0.064401	  0.405972	  0.117044	  0.138854	  0.000000	  0.000000	  0.000000	
3.456	  0.072323	  0.184211	  0.979256	  0.238834	  0.414754	  0.142373	  0.024440	  0.073411	  0.061326	  0.064376	  0.403623	  0.117784	  0.139994	  0.000000	  0.000000	  0.000000	
3.4565	  0.072144	  0.183526	  0.977106	  0.237406	  0.410610	  0.140966	  0.024307	  0.073547	  0.061872	  0.064369	  0.401231	  0.118508	  0.141131	  0.000000	  0.000000	  0.000000	
3.457	  0.071955	  0.182822	  0.974849	  0.235982	  0.406502	  0.139580	  0.024181	  0.073682	  0.062435	  0.064378	  0.398798	  0.119216	  0.142265	  0.000000	  0.000000	  0.000000	
3.4575	  0.071756	  0.182101	  0.972483	  0.234565	  0.402431	  0.138216	  0.024059	  0.073818	  0.063015	  0.064403	  0.396324	  0.119909	  0.143396	  0.000000	  0.000000	  0.000000	
3.458	  0.071546	  0.181361	  0.970009	  0.233155	  0.398397	  0.136873	  0.023943	  0.073953	  0.063613	  0.064445	  0.393810	  0.120584	  0.144523	  0.000000	  0.000000	  0.000000	
3.4585	  0.071325	  0.180603	  0.967425	  0.231751	  0.394399	  0.135552	  0.023832	  0.074087	  0.064228	  0.064503	  0.391258	  0.121242	  0.145647	  0.000000	  0.000000	  0.000000	
3.459	  0.071094	  0.179828	  0.964729	  0.230355	  0.390437	  0.134252	  0.023725	  0.074221	  0.064861	  0.064578	  0.388668	  0.121882	  0.146766	  0.000000	  0.000000	  0.000000	
3.4595	  0.070853	  0.179036	  0.961922	  0.228967	  0.386512	  0.132974	  0.023624	  0.074354	  0.065510	  0.064668	  0.386041	  0.122504	  0.147880	  0.000000	  0.000000	  0.000000	
3.46	  0.070602	  0.178227	  0.959000	  0.227588	  0.382623	  0.131717	  0.023527	  0.074487	  0.066176	  0.064774	  0.383379	  0.123107	  0.148990	  0.000000	  0.000000	  0.000000	
3.4605	  0.070340	  0.177401	  0.955963	  0.226218	  0.378769	  0.130483	  0.023434	  0.074618	  0.066859	  0.064895	  0.380681	  0.123690	  0.150094	  0.000000	  0.000000	  0.000000	
3.461	  0.070069	  0.176560	  0.952810	  0.224858	  0.374952	  0.129270	  0.023347	  0.074747	  0.067559	  0.065032	  0.377950	  0.124254	  0.151192	  0.000000	  0.000000	  0.000000	
3.4615	  0.069788	  0.175702	  0.949540	  0.223510	  0.371170	  0.128079	  0.023263	  0.074875	  0.068276	  0.065184	  0.375185	  0.124797	  0.152284	  0.000000	  0.000000	  0.000000	
3.462	  0.069498	  0.174830	  0.946151	  0.222173	  0.367422	  0.126910	  0.023184	  0.075002	  0.069009	  0.065350	  0.372388	  0.125321	  0.153370	  0.000000	  0.000000	  0.000000	
3.4625	  0.069198	  0.173942	  0.942642	  0.220848	  0.363709	  0.125763	  0.023109	  0.075126	  0.069758	  0.065532	  0.369560	  0.125823	  0.154449	  0.000000	  0.000000	  0.000000	
3.463	  0.068890	  0.173039	  0.939012	  0.219537	  0.360031	  0.124638	  0.023038	  0.075249	  0.070524	  0.065727	  0.366702	  0.126305	  0.155521	  0.000000	  0.000000	  0.000000	
3.4635	  0.068572	  0.172123	  0.935260	  0.218238	  0.356387	  0.123535	  0.022971	  0.075369	  0.071306	  0.065936	  0.363814	  0.126765	  0.156586	  0.000000	  0.000000	  0.000000	
3.464	  0.068246	  0.171191	  0.931385	  0.216954	  0.352776	  0.122453	  0.022907	  0.075487	  0.072104	  0.066160	  0.360897	  0.127204	  0.157642	  0.000000	  0.000000	  0.000000	
